<svg version="1.1" xmlns="http://www.w3.org/2000/svg" xmlns:xlink="http://www.w3.org/1999/xlink" width="28.35px" height="28.35px" viewBox="0,0,256,256"><g fill="#000000" fill-rule="nonzero" stroke="none" stroke-width="0" stroke-linecap="butt" stroke-linejoin="miter" stroke-miterlimit="10" stroke-dasharray="" stroke-dashoffset="0" font-family="none" font-weight="none" font-size="none" text-anchor="none" style="mix-blend-mode: normal"><g transform="scale(9.02998,9.02998)"><path d="M20.72,9.61c-0.59,-0.24 -1.23,-0.36 -1.87,-0.35c-0.64,0 -1.27,0.11 -1.85,0.35c-0.42,0.17 -0.81,0.42 -1.15,0.71v0.95c0.07,-0.09 0.14,-0.18 0.22,-0.27c0.34,-0.37 0.76,-0.66 1.22,-0.85c0.5,-0.2 1.03,-0.3 1.57,-0.3c0.54,0 1.08,0.09 1.58,0.3c0.46,0.19 0.88,0.48 1.22,0.85c0.35,0.39 0.62,0.86 0.78,1.36c0.19,0.58 0.29,1.19 0.28,1.81c0,0.61 -0.08,1.23 -0.28,1.81c-0.17,0.5 -0.43,0.96 -0.78,1.35c-0.34,0.37 -0.75,0.66 -1.22,0.85c-0.5,0.2 -1.04,0.3 -1.58,0.29c-0.54,0 -1.07,-0.09 -1.57,-0.29c-0.47,-0.19 -0.88,-0.48 -1.22,-0.85c-0.08,-0.09 -0.15,-0.18 -0.22,-0.27v0.96c0.34,0.3 0.73,0.54 1.15,0.71c1.2,0.47 2.52,0.47 3.72,0c0.55,-0.22 1.04,-0.56 1.45,-0.99c0.41,-0.45 0.73,-0.97 0.94,-1.55c0.23,-0.65 0.34,-1.33 0.33,-2.02c0,-0.69 -0.1,-1.37 -0.33,-2.01c-0.2,-0.58 -0.52,-1.1 -0.94,-1.55v0c-0.41,-0.43 -0.9,-0.77 -1.45,-1z"></path><path d="M13.06,18.87h0.6v-9.61h-0.47c-0.05,0 -0.1,0 -0.15,0.02c-0.05,0.02 -0.09,0.06 -0.11,0.11l-3.88,6.68c-0.07,0.13 -0.13,0.27 -0.18,0.41c-0.03,-0.07 -0.06,-0.14 -0.08,-0.21c-0.03,-0.07 -0.06,-0.14 -0.1,-0.2l-3.77,-6.67v0v1.18l3.64,6.46c0.05,0.11 0.15,0.18 0.27,0.18h0.11c0.12,0 0.22,-0.07 0.27,-0.18l3.88,-6.72c-0.01,0.13 -0.02,0.25 -0.02,0.38v8.19z"></path><path d="M27.64,21.26c-0.39,0 -0.71,0.32 -0.71,0.71v2.83c0,1.17 -0.95,2.13 -2.13,2.13h-2.83c-0.39,0 -0.71,0.32 -0.71,0.71c0,0.39 0.32,0.71 0.71,0.71h2.84c1.96,0 3.54,-1.59 3.54,-3.54v-2.83c0,-0.39 -0.32,-0.71 -0.71,-0.71z"></path><path d="M24.8,0h-2.83c-0.39,0 -0.71,0.32 -0.71,0.71c0,0.39 0.32,0.71 0.71,0.71h2.83c1.17,0 2.13,0.95 2.13,2.13v2.83c0,0.39 0.32,0.71 0.71,0.71c0.39,0 0.71,-0.32 0.71,-0.71v-2.83v0c0,-1.96 -1.59,-3.55 -3.55,-3.55z"></path><path d="M7.09,27.64c0,-0.39 -0.32,-0.71 -0.71,-0.71h-2.83c-1.17,0 -2.13,-0.95 -2.13,-2.13v-2.83c0,-0.39 -0.32,-0.71 -0.71,-0.71c-0.39,0 -0.71,0.32 -0.71,0.71v2.83v0c0,1.96 1.59,3.54 3.54,3.54h2.83c0.39,0 0.71,-0.32 0.71,-0.71z"></path><path d="M0.71,7.09c0.39,0 0.71,-0.32 0.71,-0.71v-2.83c0,-1.17 0.95,-2.13 2.13,-2.13h2.83c0.39,0 0.71,-0.32 0.71,-0.71c0,-0.39 -0.32,-0.71 -0.71,-0.71h-2.84c-1.95,0 -3.54,1.59 -3.54,3.54v2.83c0,0.4 0.32,0.72 0.71,0.72z"></path></g></g></svg>